<?xml version="1.0" encoding="UTF-8"?>
<!--Generator: Apple Native CoreSVG 326-->
<!DOCTYPE svg
PUBLIC "-//W3C//DTD SVG 1.1//EN"
       "http://www.w3.org/Graphics/SVG/1.1/DTD/svg11.dtd">
<svg version="1.1" xmlns="http://www.w3.org/2000/svg" xmlns:xlink="http://www.w3.org/1999/xlink" viewBox="0 0 46.2109 48.6133">
 <g>
  <rect height="48.6133" opacity="0" width="46.2109" x="0" y="0"/>
  <path d="M29.3164 48.6133C29.668 48.6133 29.9219 48.2617 29.9023 47.9102L29.7656 46.0547L31.3281 47.1094C31.6016 47.2852 32.0508 47.207 32.2461 46.9141C32.4219 46.6211 32.3242 46.1719 31.9336 45.9961L30.2539 45.1953L31.9531 44.3555C32.3242 44.1797 32.4023 43.75 32.2656 43.457C32.0898 43.1445 31.6016 43.0859 31.3281 43.2617L29.7656 44.3555L29.9219 42.4609C29.9609 42.0898 29.668 41.7773 29.3164 41.7773C28.9062 41.7773 28.6719 42.0898 28.6914 42.4609L28.8086 44.3555L27.2266 43.2617C26.9531 43.0859 26.543 43.125 26.3477 43.457C26.1719 43.75 26.25 44.1602 26.6211 44.3555L28.3008 45.1953L26.6211 46.0156C26.25 46.1914 26.1523 46.6016 26.3281 46.9141C26.5039 47.2461 26.9531 47.3047 27.2266 47.1094L28.8086 46.0547L28.7109 47.9102C28.6914 48.2617 28.9062 48.6133 29.3164 48.6133Z" fill="white" fill-opacity="0.85"/>
  <path d="M18.4961 48.6133C18.8477 48.6133 19.1016 48.2617 19.082 47.9102L18.9648 46.0547L20.5078 47.1094C20.7812 47.2852 21.2305 47.207 21.4258 46.9141C21.6016 46.6211 21.5039 46.1719 21.1133 45.9961L19.4336 45.1953L21.1328 44.3555C21.5039 44.1797 21.582 43.75 21.4453 43.457C21.2695 43.1445 20.7812 43.0859 20.5078 43.2617L18.9648 44.3555L19.1016 42.4609C19.1406 42.0898 18.8477 41.7773 18.4961 41.7773C18.0859 41.7773 17.8516 42.0898 17.8711 42.4609L17.9883 44.3555L16.4062 43.2617C16.1328 43.0859 15.7227 43.125 15.5273 43.457C15.3516 43.75 15.4297 44.1602 15.8008 44.3555L17.4805 45.1953L15.8008 46.0156C15.4297 46.1914 15.332 46.6016 15.5078 46.9141C15.6836 47.2461 16.1328 47.3047 16.4062 47.1094L17.9883 46.0547L17.8906 47.9102C17.8711 48.2617 18.0859 48.6133 18.4961 48.6133Z" fill="white" fill-opacity="0.85"/>
  <path d="M7.67578 48.6133C8.02734 48.6133 8.28125 48.2617 8.26172 47.9102L8.14453 46.0547L9.6875 47.1094C9.98047 47.2852 10.4102 47.207 10.6055 46.9141C10.7812 46.6211 10.6836 46.1719 10.293 45.9961L8.63281 45.1953L10.3125 44.3555C10.6836 44.1797 10.7617 43.75 10.625 43.457C10.4492 43.1445 9.98047 43.0859 9.6875 43.2617L8.14453 44.3555L8.28125 42.4609C8.32031 42.0898 8.02734 41.7773 7.67578 41.7773C7.26562 41.7773 7.03125 42.0898 7.05078 42.4609L7.16797 44.3555L5.60547 43.2617C5.3125 43.0859 4.90234 43.125 4.70703 43.457C4.53125 43.75 4.60938 44.1602 4.98047 44.3555L6.66016 45.1953L4.98047 46.0156C4.60938 46.1914 4.51172 46.6016 4.6875 46.9141C4.86328 47.2461 5.3125 47.3047 5.60547 47.1094L7.16797 46.0547L7.07031 47.9102C7.05078 48.2617 7.26562 48.6133 7.67578 48.6133Z" fill="white" fill-opacity="0.85"/>
  <path d="M33.5547 41.2695C33.9062 41.2695 34.1602 40.9375 34.1406 40.5859L34.0039 38.7109L35.5664 39.7656C35.8398 39.9609 36.2891 39.8828 36.4844 39.5898C36.6602 39.2969 36.5625 38.8477 36.1719 38.6719L34.4922 37.8516L36.1914 37.0117C36.5625 36.8359 36.6406 36.4258 36.5039 36.1133C36.3281 35.8008 35.8398 35.7422 35.5664 35.9375L34.0039 37.0117L34.1602 35.1367C34.1992 34.7656 33.9062 34.4531 33.5547 34.4531C33.1445 34.4531 32.9102 34.7656 32.9297 35.1367L33.0469 37.0117L31.4648 35.9375C31.1914 35.7422 30.7812 35.7812 30.5859 36.1133C30.4102 36.4258 30.4883 36.8359 30.8594 37.0117L32.5391 37.8516L30.8594 38.6719C30.4883 38.8477 30.3906 39.2773 30.5664 39.5898C30.7422 39.9023 31.1914 39.9609 31.4648 39.7852L33.0469 38.7305L32.9492 40.5859C32.9297 40.9375 33.1445 41.2695 33.5547 41.2695Z" fill="white" fill-opacity="0.85"/>
  <path d="M22.7344 41.2695C23.0859 41.2695 23.3398 40.9375 23.3203 40.5859L23.2031 38.7109L24.7461 39.7656C25.0195 39.9609 25.4688 39.8828 25.6641 39.5898C25.8398 39.2969 25.7422 38.8477 25.3516 38.6719L23.6719 37.8516L25.3711 37.0117C25.7422 36.8359 25.8203 36.4258 25.6836 36.1133C25.5078 35.8008 25.0195 35.7422 24.7461 35.9375L23.2031 37.0117L23.3398 35.1367C23.3789 34.7656 23.0859 34.4531 22.7344 34.4531C22.3242 34.4531 22.0898 34.7656 22.1094 35.1367L22.2266 37.0117L20.6445 35.9375C20.3711 35.7422 19.9609 35.7812 19.7656 36.1133C19.5898 36.4258 19.668 36.8359 20.0391 37.0117L21.7188 37.8516L20.0391 38.6719C19.668 38.8477 19.5703 39.2773 19.7461 39.5898C19.9219 39.9023 20.3711 39.9609 20.6445 39.7852L22.2266 38.7305L22.1289 40.5859C22.1094 40.9375 22.3242 41.2695 22.7344 41.2695Z" fill="white" fill-opacity="0.85"/>
  <path d="M11.9141 41.2695C12.2656 41.2695 12.5195 40.9375 12.5 40.5859L12.3828 38.7109L13.9258 39.7656C14.1992 39.9609 14.6484 39.8828 14.8438 39.5898C15.0195 39.2969 14.9219 38.8477 14.5312 38.6719L12.8711 37.8516L14.5508 37.0117C14.9219 36.8359 15 36.4258 14.8633 36.1133C14.6875 35.8008 14.1992 35.7422 13.9258 35.9375L12.3828 37.0117L12.5195 35.1367C12.5586 34.7656 12.2656 34.4531 11.9141 34.4531C11.5039 34.4531 11.2695 34.7656 11.2891 35.1367L11.4062 37.0117L9.84375 35.9375C9.55078 35.7422 9.14062 35.7812 8.94531 36.1133C8.76953 36.4258 8.84766 36.8359 9.21875 37.0117L10.8984 37.8516L9.21875 38.6719C8.84766 38.8477 8.75 39.2773 8.92578 39.5898C9.10156 39.9023 9.55078 39.9609 9.84375 39.7852L11.4062 38.7305L11.3086 40.5859C11.2891 40.9375 11.5039 41.2695 11.9141 41.2695Z" fill="white" fill-opacity="0.85"/>
  <path d="M10.8008 31.5234L35.0391 31.5234C41.4453 31.5234 46.2109 26.6602 46.2109 20.6445C46.2109 14.4141 41.1328 9.86328 34.5117 9.86328C32.0703 5.03906 27.5391 1.93359 21.8945 1.93359C14.5508 1.93359 8.49609 7.69531 7.85156 14.9414C4.31641 15.9766 1.62109 19.043 1.62109 23.1641C1.62109 27.793 4.98047 31.5234 10.8008 31.5234Z" fill="white" fill-opacity="0.85"/>
 </g>
</svg>
