<?xml version="1.0" encoding="UTF-8"?>
<!--Generator: Apple Native CoreSVG 341-->
<!DOCTYPE svg
PUBLIC "-//W3C//DTD SVG 1.1//EN"
       "http://www.w3.org/Graphics/SVG/1.1/DTD/svg11.dtd">
<svg version="1.1" xmlns="http://www.w3.org/2000/svg" xmlns:xlink="http://www.w3.org/1999/xlink" viewBox="0 0 3300 2200">
 <!--glyph: "1001C3", point size: 100.0, font version: "20.0d8e1", template writer version: "138.0.0"-->
 <style>.SFSymbolsPreviewWireframe {fill:none;opacity:1.0;stroke:black;stroke-width:0.5}
</style>
 <g id="Notes">
  <rect height="2200" id="artboard" style="fill:white;opacity:1" width="3300" x="0" y="0"/>
  <line style="fill:none;stroke:black;opacity:1;stroke-width:0.5;" x1="263" x2="3036" y1="292" y2="292"/>
  <text style="stroke:none;fill:black;font-family:sans-serif;font-size:13;font-weight:bold;" transform="matrix(1 0 0 1 263 322)">Weight/Scale Variations</text>
  <text style="stroke:none;fill:black;font-family:sans-serif;font-size:13;text-anchor:middle;" transform="matrix(1 0 0 1 559.711 322)">Ultralight</text>
  <text style="stroke:none;fill:black;font-family:sans-serif;font-size:13;text-anchor:middle;" transform="matrix(1 0 0 1 856.422 322)">Thin</text>
  <text style="stroke:none;fill:black;font-family:sans-serif;font-size:13;text-anchor:middle;" transform="matrix(1 0 0 1 1153.13 322)">Light</text>
  <text style="stroke:none;fill:black;font-family:sans-serif;font-size:13;text-anchor:middle;" transform="matrix(1 0 0 1 1449.84 322)">Regular</text>
  <text style="stroke:none;fill:black;font-family:sans-serif;font-size:13;text-anchor:middle;" transform="matrix(1 0 0 1 1746.56 322)">Medium</text>
  <text style="stroke:none;fill:black;font-family:sans-serif;font-size:13;text-anchor:middle;" transform="matrix(1 0 0 1 2043.27 322)">Semibold</text>
  <text style="stroke:none;fill:black;font-family:sans-serif;font-size:13;text-anchor:middle;" transform="matrix(1 0 0 1 2339.98 322)">Bold</text>
  <text style="stroke:none;fill:black;font-family:sans-serif;font-size:13;text-anchor:middle;" transform="matrix(1 0 0 1 2636.69 322)">Heavy</text>
  <text style="stroke:none;fill:black;font-family:sans-serif;font-size:13;text-anchor:middle;" transform="matrix(1 0 0 1 2933.4 322)">Black</text>
  <line style="fill:none;stroke:black;opacity:1;stroke-width:0.5;" x1="263" x2="3036" y1="1903" y2="1903"/>
  <g transform="matrix(0.2 0 0 0.2 263 1933)">
   <path d="m46.2402 4.15039c21.7773 0 39.4531-17.627 39.4531-39.4043s-17.6758-39.4043-39.4531-39.4043c-21.7285 0-39.4043 17.627-39.4043 39.4043s17.6758 39.4043 39.4043 39.4043Zm0-7.42188c-17.6758 0-31.9336-14.3066-31.9336-31.9824s14.2578-31.9824 31.9336-31.9824 31.9824 14.3066 31.9824 31.9824-14.3066 31.9824-31.9824 31.9824Zm-17.9688-31.9824c0 2.14844 1.51367 3.61328 3.75977 3.61328h10.498v10.5957c0 2.19727 1.46484 3.71094 3.61328 3.71094 2.24609 0 3.71094-1.51367 3.71094-3.71094v-10.5957h10.5957c2.19727 0 3.71094-1.46484 3.71094-3.61328 0-2.19727-1.51367-3.71094-3.71094-3.71094h-10.5957v-10.5469c0-2.24609-1.46484-3.75977-3.71094-3.75977-2.14844 0-3.61328 1.51367-3.61328 3.75977v10.5469h-10.498c-2.24609 0-3.75977 1.51367-3.75977 3.71094Z"/>
  </g>
  <g transform="matrix(0.2 0 0 0.2 281.506 1933)">
   <path d="m58.5449 14.5508c27.4902 0 49.8047-22.3145 49.8047-49.8047s-22.3145-49.8047-49.8047-49.8047-49.8047 22.3145-49.8047 49.8047 22.3145 49.8047 49.8047 49.8047Zm0-8.30078c-22.9492 0-41.5039-18.5547-41.5039-41.5039s18.5547-41.5039 41.5039-41.5039 41.5039 18.5547 41.5039 41.5039-18.5547 41.5039-41.5039 41.5039Zm-22.6562-41.5039c0 2.39258 1.66016 4.00391 4.15039 4.00391h14.3555v14.4043c0 2.44141 1.66016 4.15039 4.05273 4.15039 2.44141 0 4.15039-1.66016 4.15039-4.15039v-14.4043h14.4043c2.44141 0 4.15039-1.61133 4.15039-4.00391 0-2.44141-1.70898-4.15039-4.15039-4.15039h-14.4043v-14.3555c0-2.49023-1.70898-4.19922-4.15039-4.19922-2.39258 0-4.05273 1.70898-4.05273 4.19922v14.3555h-14.3555c-2.49023 0-4.15039 1.70898-4.15039 4.15039Z"/>
  </g>
  <g transform="matrix(0.2 0 0 0.2 304.924 1933)">
   <path d="m74.8535 28.3203c35.1074 0 63.623-28.4668 63.623-63.5742s-28.5156-63.623-63.623-63.623-63.5742 28.5156-63.5742 63.623 28.4668 63.5742 63.5742 63.5742Zm0-9.08203c-30.127 0-54.4922-24.3652-54.4922-54.4922s24.3652-54.4922 54.4922-54.4922 54.4922 24.3652 54.4922 54.4922-24.3652 54.4922-54.4922 54.4922Zm-28.8574-54.4922c0 2.58789 1.85547 4.39453 4.58984 4.39453h19.7266v19.7754c0 2.68555 1.85547 4.58984 4.44336 4.58984 2.68555 0 4.54102-1.85547 4.54102-4.58984v-19.7754h19.7754c2.68555 0 4.58984-1.80664 4.58984-4.39453 0-2.73438-1.85547-4.58984-4.58984-4.58984h-19.7754v-19.7266c0-2.73438-1.85547-4.63867-4.54102-4.63867-2.58789 0-4.44336 1.9043-4.44336 4.63867v19.7266h-19.7266c-2.73438 0-4.58984 1.85547-4.58984 4.58984Z"/>
  </g>
  <text style="stroke:none;fill:black;font-family:sans-serif;font-size:13;font-weight:bold;" transform="matrix(1 0 0 1 263 1953)">Design Variations</text>
  <text style="stroke:none;fill:black;font-family:sans-serif;font-size:13;" transform="matrix(1 0 0 1 263 1971)">Symbols are supported in up to nine weights and three scales.</text>
  <text style="stroke:none;fill:black;font-family:sans-serif;font-size:13;" transform="matrix(1 0 0 1 263 1989)">For optimal layout with text and other symbols, vertically align</text>
  <text style="stroke:none;fill:black;font-family:sans-serif;font-size:13;" transform="matrix(1 0 0 1 263 2007)">symbols with the adjacent text.</text>
  <line style="fill:none;stroke:#00AEEF;stroke-width:0.5;opacity:1.0;" x1="776" x2="776" y1="1919" y2="1933"/>
  <g transform="matrix(0.2 0 0 0.2 776 1933)">
   <path d="m16.5527 0.78125c2.58789 0 3.85742-0.976562 4.78516-3.71094l6.29883-17.2363h28.8086l6.29883 17.2363c0.927734 2.73438 2.19727 3.71094 4.73633 3.71094 2.58789 0 4.24805-1.5625 4.24805-4.00391 0-0.830078-0.146484-1.61133-0.537109-2.63672l-22.9004-60.9863c-1.12305-2.97852-3.125-4.49219-6.25-4.49219-3.02734 0-5.07812 1.46484-6.15234 4.44336l-22.9004 61.084c-0.390625 1.02539-0.537109 1.80664-0.537109 2.63672 0 2.44141 1.5625 3.95508 4.10156 3.95508Zm13.4766-28.3691 11.8652-32.8613h0.244141l11.8652 32.8613Z"/>
  </g>
  <line style="fill:none;stroke:#00AEEF;stroke-width:0.5;opacity:1.0;" x1="792.836" x2="792.836" y1="1919" y2="1933"/>
  <text style="stroke:none;fill:black;font-family:sans-serif;font-size:13;font-weight:bold;" transform="matrix(1 0 0 1 776 1953)">Margins</text>
  <text style="stroke:none;fill:black;font-family:sans-serif;font-size:13;" transform="matrix(1 0 0 1 776 1971)">Leading and trailing margins on the left and right side of each symbol</text>
  <text style="stroke:none;fill:black;font-family:sans-serif;font-size:13;" transform="matrix(1 0 0 1 776 1989)">can be adjusted by modifying the x-location of the margin guidelines.</text>
  <text style="stroke:none;fill:black;font-family:sans-serif;font-size:13;" transform="matrix(1 0 0 1 776 2007)">Modifications are automatically applied proportionally to all</text>
  <text style="stroke:none;fill:black;font-family:sans-serif;font-size:13;" transform="matrix(1 0 0 1 776 2025)">scales and weights.</text>
  <g transform="matrix(0.2 0 0 0.2 1289 1933)">
   <path d="m14.209 9.32617 8.49609 8.54492c4.29688 4.3457 9.22852 4.05273 13.8672-1.07422l53.4668-58.9355-4.83398-4.88281-53.0762 58.3984c-1.75781 2.00195-3.41797 2.49023-5.76172 0.146484l-5.85938-5.81055c-2.34375-2.29492-1.80664-4.00391 0.195312-5.81055l57.373-54.0039-4.88281-4.83398-57.959 54.4434c-4.93164 4.58984-5.32227 9.47266-1.02539 13.8184Zm32.0801-90.9668c-2.09961 2.05078-2.24609 4.93164-1.07422 6.88477 1.17188 1.80664 3.4668 2.97852 6.68945 2.14844 7.32422-1.70898 14.9414-2.00195 22.0703 2.68555l-2.92969 7.27539c-1.70898 4.15039-0.830078 7.08008 1.85547 9.81445l11.4746 11.5723c2.44141 2.44141 4.49219 2.53906 7.32422 2.05078l5.32227-0.976562 3.32031 3.36914-0.195312 2.7832c-0.195312 2.49023 0.439453 4.39453 2.88086 6.78711l3.80859 3.71094c2.39258 2.39258 5.46875 2.53906 7.8125 0.195312l14.5508-14.5996c2.34375-2.34375 2.24609-5.32227-0.146484-7.71484l-3.85742-3.80859c-2.39258-2.39258-4.24805-3.17383-6.64062-2.97852l-2.88086 0.244141-3.22266-3.17383 1.2207-5.61523c0.634766-2.83203-0.146484-5.0293-3.07617-7.95898l-10.9863-10.9375c-16.6992-16.6016-38.8672-16.2109-53.3203-1.75781Zm7.4707 1.85547c12.1582-8.88672 28.6133-7.37305 39.7461 3.75977l12.1582 12.0605c1.17188 1.17188 1.36719 2.09961 1.02539 3.80859l-1.61133 7.42188 7.51953 7.42188 4.93164-0.292969c1.26953-0.0488281 1.66016 0.0488281 2.63672 1.02539l2.88086 2.88086-12.207 12.207-2.88086-2.88086c-0.976562-0.976562-1.12305-1.36719-1.07422-2.68555l0.341797-4.88281-7.4707-7.42188-7.61719 1.26953c-1.61133 0.341797-2.34375 0.195312-3.56445-0.976562l-10.0098-10.0098c-1.26953-1.17188-1.41602-2.00195-0.634766-3.85742l4.39453-10.4492c-7.8125-7.27539-17.9688-10.4004-28.125-7.42188-0.78125 0.195312-1.07422-0.439453-0.439453-0.976562Z"/>
  </g>
  <text style="stroke:none;fill:black;font-family:sans-serif;font-size:13;font-weight:bold;" transform="matrix(1 0 0 1 1289 1953)">Exporting</text>
  <text style="stroke:none;fill:black;font-family:sans-serif;font-size:13;" transform="matrix(1 0 0 1 1289 1971)">Symbols should be outlined when exporting to ensure the</text>
  <text style="stroke:none;fill:black;font-family:sans-serif;font-size:13;" transform="matrix(1 0 0 1 1289 1989)">design is preserved when submitting to Xcode.</text>
  <text id="template-version" style="stroke:none;fill:black;font-family:sans-serif;font-size:13;text-anchor:end;" transform="matrix(1 0 0 1 3036 1933)">Template v.6.0</text>
  <text style="stroke:none;fill:black;font-family:sans-serif;font-size:13;text-anchor:end;" transform="matrix(1 0 0 1 3036 1951)">Requires Xcode 16 or greater</text>
  <text id="descriptive-name" style="stroke:none;fill:black;font-family:sans-serif;font-size:13;text-anchor:end;" transform="matrix(1 0 0 1 3036 1969)">Generated from cloud.fill</text>
  <text style="stroke:none;fill:black;font-family:sans-serif;font-size:13;text-anchor:end;" transform="matrix(1 0 0 1 3036 1987)">Typeset at 100.0 points</text>
  <text style="stroke:none;fill:black;font-family:sans-serif;font-size:13;" transform="matrix(1 0 0 1 263 726)">Small</text>
  <text style="stroke:none;fill:black;font-family:sans-serif;font-size:13;" transform="matrix(1 0 0 1 263 1156)">Medium</text>
  <text style="stroke:none;fill:black;font-family:sans-serif;font-size:13;" transform="matrix(1 0 0 1 263 1586)">Large</text>
 </g>
 <g id="Guides">
  <g id="H-reference" style="fill:#27AAE1;stroke:none;" transform="matrix(1 0 0 1 339 696)">
   <path d="M0.993654 0L3.63775 0L29.3281-67.1323L30.0303-67.1323L30.0303-70.459L28.1226-70.459ZM11.6885-24.4799L46.9815-24.4799L46.2315-26.7285L12.4385-26.7285ZM55.1196 0L57.7637 0L30.6382-70.459L29.4326-70.459L29.4326-67.1323Z"/>
  </g>
  <line id="Baseline-S" style="fill:none;stroke:#27AAE1;opacity:1;stroke-width:0.5;" x1="263" x2="3036" y1="696" y2="696"/>
  <line id="Capline-S" style="fill:none;stroke:#27AAE1;opacity:1;stroke-width:0.5;" x1="263" x2="3036" y1="625.541" y2="625.541"/>
  <g id="H-reference" style="fill:#27AAE1;stroke:none;" transform="matrix(1 0 0 1 339 1126)">
   <path d="M0.993654 0L3.63775 0L29.3281-67.1323L30.0303-67.1323L30.0303-70.459L28.1226-70.459ZM11.6885-24.4799L46.9815-24.4799L46.2315-26.7285L12.4385-26.7285ZM55.1196 0L57.7637 0L30.6382-70.459L29.4326-70.459L29.4326-67.1323Z"/>
  </g>
  <line id="Baseline-M" style="fill:none;stroke:#27AAE1;opacity:1;stroke-width:0.5;" x1="263" x2="3036" y1="1126" y2="1126"/>
  <line id="Capline-M" style="fill:none;stroke:#27AAE1;opacity:1;stroke-width:0.5;" x1="263" x2="3036" y1="1055.54" y2="1055.54"/>
  <g id="H-reference" style="fill:#27AAE1;stroke:none;" transform="matrix(1 0 0 1 339 1556)">
   <path d="M0.993654 0L3.63775 0L29.3281-67.1323L30.0303-67.1323L30.0303-70.459L28.1226-70.459ZM11.6885-24.4799L46.9815-24.4799L46.2315-26.7285L12.4385-26.7285ZM55.1196 0L57.7637 0L30.6382-70.459L29.4326-70.459L29.4326-67.1323Z"/>
  </g>
  <line id="Baseline-L" style="fill:none;stroke:#27AAE1;opacity:1;stroke-width:0.5;" x1="263" x2="3036" y1="1556" y2="1556"/>
  <line id="Capline-L" style="fill:none;stroke:#27AAE1;opacity:1;stroke-width:0.5;" x1="263" x2="3036" y1="1485.54" y2="1485.54"/>
  <line id="right-margin-Regular-M" style="fill:none;stroke:#00AEEF;stroke-width:0.5;opacity:1.0;" x1="1515.66" x2="1515.66" y1="1030.79" y2="1150.12"/>
  <line id="left-margin-Regular-M" style="fill:none;stroke:#00AEEF;stroke-width:0.5;opacity:1.0;" x1="1384.03" x2="1384.03" y1="1030.79" y2="1150.12"/>
 </g>
 <g id="Symbols">
  <g id="Black-L" transform="matrix(1 0 0 1 2842.92 1556)">
   <path class="SFSymbolsPreviewWireframe" d="M46.5499 17.3968L131.245 17.3968C154.72 17.3968 172.91-0.447041 172.91-23.547C172.91-46.9489 154.974-65.0075 130.619-64.9855C121.674-82.2613 105.957-91.5492 85.4085-91.5492C59.2929-91.5492 37.7276-73.0834 33.9441-46.681C19.8228-41.8416 11.2588-30.0303 11.2588-15.8389C11.2588 3.53847 25.9539 17.3968 46.5499 17.3968Z"/>
  </g>
  <g id="Heavy-L" transform="matrix(1 0 0 1 2547.55 1556)">
   <path class="SFSymbolsPreviewWireframe" d="M45.4492 16.5424L129.571 16.5424C152.479 16.5424 170.239-0.848664 170.239-23.3188C170.239-46.086 152.535-63.5132 128.618-63.4775C119.819-80.6187 104.205-90.1339 84.0421-90.1339C58.3005-90.1339 36.9983-71.4712 33.6189-45.4636C19.8742-40.9357 11.2588-29.4057 11.2588-15.4134C11.2588 3.22169 25.334 16.5424 45.4492 16.5424Z"/>
  </g>
  <g id="Bold-L" transform="matrix(1 0 0 1 2252.39 1556)">
   <path class="SFSymbolsPreviewWireframe" d="M44.1189 15.4449L127.653 15.4449C149.884 15.4449 167.136-1.40768 167.136-23.1091C167.136-45.1074 149.717-61.7881 126.345-61.7369C117.716-78.7465 102.269-88.5533 82.4708-88.5533C57.1903-88.5533 36.2333-69.6597 33.3087-44.0991C19.9879-39.9331 11.2588-28.7713 11.2588-14.9802C11.2588 2.72546 24.5656 15.4449 44.1189 15.4449Z"/>
  </g>
  <g id="Semibold-L" transform="matrix(1 0 0 1 1956.75 1556)">
   <path class="SFSymbolsPreviewWireframe" d="M43.2017 14.6882L126.33 14.6882C148.095 14.6882 164.997-1.79306 164.997-22.9645C164.997-44.4327 147.774-60.5988 124.778-60.537C116.265-77.4558 100.934-87.4637 81.3876-87.4637C56.4249-87.4637 35.7059-68.4108 33.0948-43.1584C20.0663-39.2419 11.2588-28.334 11.2588-14.6815C11.2588 2.38337 24.0359 14.6882 43.2017 14.6882Z"/>
  </g>
  <g id="Medium-L" transform="matrix(1 0 0 1 1660.85 1556)">
   <path class="SFSymbolsPreviewWireframe" d="M42.5063 14.1145L125.328 14.1145C146.738 14.1145 163.375-2.08527 163.375-22.8548C163.375-43.9211 146.3-59.6971 123.589-59.6272C115.166-76.4771 99.9224-86.6375 80.5662-86.6375C55.8446-86.6375 35.306-67.4639 32.9326-42.4452C20.1257-38.7178 11.2588-28.0023 11.2588-14.455C11.2588 2.12397 23.6342 14.1145 42.5063 14.1145Z"/>
  </g>
  <g id="Regular-L" transform="matrix(1 0 0 1 1365.19 1556)">
   <path class="SFSymbolsPreviewWireframe" d="M41.5993 13.3661L124.02 13.3661C144.969 13.3661 161.259-2.46642 161.259-22.7118C161.259-43.2538 144.378-58.5209 122.04-58.4404C113.731-75.2005 98.6025-85.5598 79.4949-85.5598C55.0876-85.5598 34.7844-66.2288 32.7211-41.5148C20.2033-38.0342 11.2588-27.5698 11.2588-14.1597C11.2588 1.78564 23.1103 13.3661 41.5993 13.3661Z"/>
  </g>
  <g id="Light-L" transform="matrix(1 0 0 1 1068.89 1556)">
   <path class="SFSymbolsPreviewWireframe" d="M40.8931 12.3546L123.695 12.3546C144.339 12.3546 160.438-3.24891 160.438-23.0363C160.438-43.1584 143.73-58.1392 121.791-58.0587C113.521-74.9524 98.7742-85.5789 79.1895-85.5789C55.0876-85.5789 35.147-66.1716 33.1028-41.4957C20.604-38.1105 11.2588-28.0278 11.2588-14.465C11.2588 0.774117 22.5759 12.3546 40.8931 12.3546Z"/>
  </g>
  <g id="Thin-L" transform="matrix(1 0 0 1 772.725 1556)">
   <path class="SFSymbolsPreviewWireframe" d="M39.9592 11.0168L123.266 11.0168C143.506 11.0168 159.353-4.28383 159.353-23.4654C159.353-43.0322 142.871-57.6343 121.463-57.5539C113.244-74.6243 99.0014-85.6041 78.7857-85.6041C55.0876-85.6041 35.6266-66.0958 33.6076-41.4705C21.1341-38.2115 11.2588-28.6336 11.2588-14.8689C11.2588-0.563699 21.8692 11.0168 39.9592 11.0168Z"/>
  </g>
  <g id="Ultralight-L" transform="matrix(1 0 0 1 476.292 1556)">
   <path class="SFSymbolsPreviewWireframe" d="M39.4808 10.3315L123.047 10.3315C143.08 10.3315 158.797-4.81391 158.797-23.6852C158.797-42.9676 142.432-57.3757 121.295-57.2953C113.101-74.4562 99.1178-85.6171 78.5788-85.6171C55.0876-85.6171 35.8722-66.0571 33.8662-41.4575C21.4056-38.2632 11.2588-28.9439 11.2588-15.0758C11.2588-1.24892 21.5072 10.3315 39.4808 10.3315Z"/>
  </g>
  <g id="Black-M" transform="matrix(1 0 0 1 2862.21 1126)">
   <path class="SFSymbolsPreviewWireframe" d="M36.9145 6.13951L103.076 6.13951C121.709 6.13951 136.145-8.04292 136.145-26.4186C136.145-45.0377 122.072-59.5323 102.882-59.5271C95.8308-73.0451 83.6186-80.0817 67.3024-80.0817C46.7896-80.0817 29.9051-65.9343 26.6291-45.1452C15.3677-41.141 8.72266-31.8003 8.72266-20.6139C8.72266-5.05912 20.5679 6.13951 36.9145 6.13951Z"/>
  </g>
  <g id="Heavy-M" transform="matrix(1 0 0 1 2566.77 1126)">
   <path class="SFSymbolsPreviewWireframe" d="M35.9036 5.39764L101.469 5.39764C119.576 5.39764 133.61-8.36335 133.61-26.1656C133.61-44.203 119.748-58.1068 100.949-58.0881C94.0375-71.4622 81.8899-78.6964 65.9949-78.6964C45.8195-78.6964 29.1587-64.3635 26.276-43.9568C15.381-40.2484 8.72266-31.1475 8.72266-20.1697C8.72266-5.27548 20.0112 5.39764 35.9036 5.39764Z"/>
  </g>
  <g id="Bold-M" transform="matrix(1 0 0 1 2271.48 1126)">
   <path class="SFSymbolsPreviewWireframe" d="M34.7728 4.56774L99.672 4.56774C117.191 4.56774 130.773-8.72179 130.773-25.8826C130.773-43.2692 117.149-56.5121 98.7863-56.4783C92.0314-69.6916 79.9561-77.1467 64.5322-77.1467C44.7342-77.1467 28.3237-62.6064 25.881-42.6275C15.3958-39.25 8.72266-30.4172 8.72266-19.6729C8.72266-5.51751 19.3885 4.56774 34.7728 4.56774Z"/>
  </g>
  <g id="Semibold-M" transform="matrix(1 0 0 1 1975.74 1126)">
   <path class="SFSymbolsPreviewWireframe" d="M33.9932 3.99562L98.433 3.99562C115.546 3.99562 128.818-8.9689 128.818-25.6875C128.818-42.6254 115.357-55.4127 97.2954-55.3685C90.6484-68.4709 78.6229-76.0783 63.5239-76.0783C43.986-76.0783 27.748-61.3951 25.6087-41.7111C15.406-38.5616 8.72266-29.9138 8.72266-19.3303C8.72266-5.68437 18.9592 3.99562 33.9932 3.99562Z"/>
  </g>
  <g id="Medium-M" transform="matrix(1 0 0 1 1679.77 1126)">
   <path class="SFSymbolsPreviewWireframe" d="M33.4021 3.56181L97.4936 3.56181C114.299 3.56181 127.336-9.15627 127.336-25.5396C127.336-42.1373 113.998-54.5791 96.165-54.5271C89.5998-67.5454 77.6121-75.2682 62.7593-75.2682C43.4187-75.2682 27.3116-60.4766 25.4022-41.0162C15.4138-38.0397 8.72266-29.5321 8.72266-19.0706C8.72266-5.81088 18.6337 3.56181 33.4021 3.56181Z"/>
  </g>
  <g id="Regular-M" transform="matrix(1 0 0 1 1384.03 1126)">
   <path class="SFSymbolsPreviewWireframe" d="M32.6311 2.99597L96.2683 2.99597C112.673 2.99597 125.402-9.40066 125.402-25.3467C125.402-41.5007 112.226-53.4918 94.6906-53.4295C88.232-66.3381 76.2936-74.2116 61.762-74.2116C42.6787-74.2116 26.7423-59.2786 25.1329-40.1099C15.4239-37.3589 8.72266-29.0342 8.72266-18.7318C8.72266-5.9759 18.2091 2.99597 32.6311 2.99597Z"/>
  </g>
  <g id="Light-M" transform="matrix(1 0 0 1 1087.69 1126)">
   <path class="SFSymbolsPreviewWireframe" d="M31.998 2.08909L95.9774 2.08909C112.108 2.08909 124.666-10.1022 124.666-25.6375C124.666-41.4151 111.644-53.1496 94.4681-53.0873C88.0438-66.1157 76.4476-74.2287 61.4883-74.2287C42.6787-74.2287 27.0674-59.2273 25.4751-40.0927C15.7832-37.4273 8.72266-29.4448 8.72266-19.0056C8.72266-6.88278 17.73 2.08909 31.998 2.08909Z"/>
  </g>
  <g id="Thin-M" transform="matrix(1 0 0 1 791.461 1126)">
   <path class="SFSymbolsPreviewWireframe" d="M31.1607 0.889669L95.5927 0.889669C111.361 0.889669 123.693-11.0301 123.693-26.0223C123.693-41.302 110.875-52.697 94.1739-52.6347C87.7948-65.8215 76.6513-74.2514 61.1262-74.2514C42.6787-74.2514 27.4974-59.1594 25.9277-40.0701C16.2585-37.5179 8.72266-29.988 8.72266-19.3677C8.72266-8.08221 17.0963 0.889669 31.1607 0.889669Z"/>
  </g>
  <g id="Ultralight-M" transform="matrix(1 0 0 1 494.999 1126)">
   <path class="SFSymbolsPreviewWireframe" d="M30.7318 0.275332L95.3956 0.275332C110.979 0.275332 123.194-11.5053 123.194-26.2193C123.194-41.244 110.481-52.4652 94.0232-52.4029C87.6673-65.6708 76.7556-74.263 60.9407-74.263C42.6787-74.263 27.7176-59.1246 26.1596-40.0585C16.5019-37.5642 8.72266-30.2662 8.72266-19.5531C8.72266-8.69654 16.7717 0.275332 30.7318 0.275332Z"/>
  </g>
  <g id="Black-S" transform="matrix(1 0 0 1 2877.25 696)">
   <path class="SFSymbolsPreviewWireframe" d="M29.1992-2.63672L81.25-2.63672C95.9961-2.63672 107.422-13.8672 107.422-28.418C107.422-43.1641 96.3379-54.6875 81.2012-54.6875C75.6348-65.332 66.0645-70.8008 53.125-70.8008C36.9629-70.8008 23.6816-59.7656 20.9961-43.3594C12.0605-40.1367 6.83594-32.7637 6.83594-23.9258C6.83594-11.5723 16.2598-2.63672 29.1992-2.63672Z"/>
  </g>
  <g id="Heavy-S" transform="matrix(1 0 0 1 2581.57 696)">
   <path class="SFSymbolsPreviewWireframe" d="M28.4156-3.15532L79.9132-3.15532C94.2444-3.15532 105.347-14.0516 105.347-28.1644C105.347-42.4611 94.4248-53.512 79.5762-53.5005C74.1251-64.0067 64.5663-69.6138 52.0417-69.6138C36.1331-69.6138 23.0017-58.4288 20.6504-42.3452C12.026-39.3646 6.83594-32.1529 6.83594-23.5109C6.83594-11.6414 15.8449-3.15532 28.4156-3.15532Z"/>
  </g>
  <g id="Bold-S" transform="matrix(1 0 0 1 2286.02 696)">
   <path class="SFSymbolsPreviewWireframe" d="M27.5391-3.73535L78.418-3.73535C92.2852-3.73535 103.027-14.2578 103.027-27.8809C103.027-41.6748 92.2852-52.1973 77.7588-52.1729C72.4365-62.5244 62.8906-68.2861 50.8301-68.2861C35.2051-68.2861 22.2412-56.9336 20.2637-41.2109C11.9873-38.501 6.83594-31.4697 6.83594-23.0469C6.83594-11.7188 15.3809-3.73535 27.5391-3.73535Z"/>
  </g>
  <g id="Semibold-S" transform="matrix(1 0 0 1 1990.11 696)">
   <path class="SFSymbolsPreviewWireframe" d="M26.9348-4.13525L77.3871-4.13525C90.9344-4.13525 101.428-14.4 101.428-27.6854C101.428-41.1327 90.81-51.2908 76.5058-51.2575C71.2724-61.5024 61.7354-67.3708 49.9947-67.3708C34.5652-67.3708 21.7169-55.9027 19.9971-40.4289C11.9606-37.9056 6.83594-30.9987 6.83594-22.727C6.83594-11.7721 15.0609-4.13525 26.9348-4.13525Z"/>
  </g>
  <g id="Medium-S" transform="matrix(1 0 0 1 1694.01 696)">
   <path class="SFSymbolsPreviewWireframe" d="M26.4766-4.43848L76.6055-4.43848C89.9102-4.43848 100.215-14.5078 100.215-27.5371C100.215-40.7217 89.6914-50.6035 75.5557-50.5635C70.3896-60.7275 60.8594-66.6768 49.3613-66.6768C34.0801-66.6768 21.3193-55.1211 19.7949-39.8359C11.9404-37.4541 6.83594-30.6416 6.83594-22.4844C6.83594-11.8125 14.8184-4.43848 26.4766-4.43848Z"/>
  </g>
  <g id="Regular-S" transform="matrix(1 0 0 1 1398.09 696)">
   <path class="SFSymbolsPreviewWireframe" d="M25.8789-4.83398L75.5859-4.83398C88.5742-4.83398 98.6328-14.6484 98.6328-27.3438C98.6328-40.1855 88.2324-49.707 74.3164-49.6582C69.2383-59.7168 59.7168-65.7715 48.5352-65.7715C33.4473-65.7715 20.8008-54.1016 19.5312-39.0625C11.9141-36.8652 6.83594-30.1758 6.83594-22.168C6.83594-11.8652 14.502-4.83398 25.8789-4.83398Z"/>
  </g>
  <g id="Light-S" transform="matrix(1 0 0 1 1101.7 696)">
   <path class="SFSymbolsPreviewWireframe" d="M25.3189-5.63622L75.3286-5.63622C88.0747-5.63622 97.9819-15.269 97.9819-27.6011C97.9819-40.1099 87.7178-49.4043 74.1196-49.3555C69.0718-59.52 59.853-65.7866 48.293-65.7866C33.4473-65.7866 21.0884-54.0562 19.834-39.0474C12.2319-36.9258 6.83594-30.5391 6.83594-22.4102C6.83594-12.6675 14.0781-5.63622 25.3189-5.63622Z"/>
  </g>
  <g id="Thin-S" transform="matrix(1 0 0 1 805.42 696)">
   <path class="SFSymbolsPreviewWireframe" d="M24.5781-6.69725L74.9883-6.69725C87.4141-6.69725 97.1211-16.0898 97.1211-27.9414C97.1211-40.0098 87.0371-49.0039 73.8594-48.9551C68.8516-59.2598 60.0332-65.8066 47.9727-65.8066C33.4473-65.8066 21.4687-53.9961 20.2344-39.0273C12.6523-37.0059 6.83594-31.0195 6.83594-22.7305C6.83594-13.7285 13.5176-6.69725 24.5781-6.69725Z"/>
  </g>
  <g id="Ultralight-S" transform="matrix(1 0 0 1 508.93 696)">
   <path class="SFSymbolsPreviewWireframe" d="M24.1987-7.2407L74.814-7.2407C87.0757-7.2407 96.6802-16.5102 96.6802-28.1157C96.6802-39.9585 86.6885-48.7988 73.7261-48.75C68.7388-59.1265 60.1255-65.8169 47.8086-65.8169C33.4473-65.8169 21.6636-53.9653 20.4394-39.0171C12.8677-37.0469 6.83594-31.2656 6.83594-22.8945C6.83594-14.272 13.2305-7.2407 24.1987-7.2407Z"/>
  </g>
 </g>
</svg>
