<?xml version="1.0" encoding="UTF-8"?>
<!--Generator: Apple Native CoreSVG 326-->
<!DOCTYPE svg
PUBLIC "-//W3C//DTD SVG 1.1//EN"
       "http://www.w3.org/Graphics/SVG/1.1/DTD/svg11.dtd">
<svg version="1.1" xmlns="http://www.w3.org/2000/svg" xmlns:xlink="http://www.w3.org/1999/xlink" viewBox="0 0 46.2109 44.7461">
 <g>
  <rect height="44.7461" opacity="0" width="46.2109" x="0" y="0"/>
  <path d="M36.8164 40.7422L11.4062 40.7422C10.7227 40.7422 10.1758 41.2695 10.1758 41.9727C10.1758 42.6758 10.7227 43.2227 11.4062 43.2227L36.8164 43.2227C37.5 43.2227 38.0469 42.6758 38.0469 41.9727C38.0469 41.2695 37.5 40.7422 36.8164 40.7422Z" fill="white" fill-opacity="0.85"/>
  <path d="M36.8164 34.1211L11.4062 34.1211C10.7227 34.1211 10.1758 34.6484 10.1758 35.3516C10.1758 36.0547 10.7227 36.582 11.4062 36.582L36.8164 36.582C37.5 36.582 38.0469 36.0547 38.0469 35.3516C38.0469 34.6484 37.5 34.1211 36.8164 34.1211Z" fill="white" fill-opacity="0.85"/>
  <path d="M10.8008 29.5898L35.0391 29.5898C41.4453 29.5898 46.2109 24.7266 46.2109 18.7109C46.2109 12.4805 41.1328 7.92969 34.5117 7.92969C32.0703 3.10547 27.5391 0 21.8945 0C14.5508 0 8.49609 5.76172 7.85156 13.0078C4.31641 14.043 1.62109 17.1094 1.62109 21.2305C1.62109 25.8594 4.98047 29.5898 10.8008 29.5898Z" fill="white" fill-opacity="0.85"/>
 </g>
</svg>
