<?xml version="1.0" encoding="UTF-8"?>
<!--Generator: Apple Native CoreSVG 326-->
<!DOCTYPE svg
PUBLIC "-//W3C//DTD SVG 1.1//EN"
       "http://www.w3.org/Graphics/SVG/1.1/DTD/svg11.dtd">
<svg version="1.1" xmlns="http://www.w3.org/2000/svg" xmlns:xlink="http://www.w3.org/1999/xlink" viewBox="0 0 46.2109 45.0311">
 <g>
  <rect height="45.0311" opacity="0" width="46.2109" x="0" y="0"/>
  <path d="M31.3867 44.4199L37.168 34.4199C37.5 33.8339 37.3242 33.1699 36.7578 32.8378C36.2109 32.4863 35.5078 32.662 35.1562 33.2675L29.4141 43.2285C29.082 43.8144 29.2578 44.498 29.8242 44.8495C30.3906 45.1816 31.0547 45.0058 31.3867 44.4199Z" fill="white" fill-opacity="0.85"/>
  <path d="M26.8555 38.8535L29.3945 34.4394C29.7461 33.8535 29.5508 33.1699 28.9648 32.8183C28.3789 32.4863 27.7148 32.662 27.3633 33.2675L24.8047 37.7206C24.4727 38.2675 24.6289 38.9511 25.2344 39.3027C25.8203 39.6347 26.5234 39.4199 26.8555 38.8535Z" fill="white" fill-opacity="0.85"/>
  <path d="M15.8594 44.4394L21.6211 34.4394C21.9531 33.8535 21.7969 33.1894 21.2305 32.8574C20.6641 32.5058 19.9414 32.6816 19.6094 33.287L13.8867 43.248C13.5547 43.8339 13.7109 44.5175 14.2969 44.8691C14.8633 45.2011 15.5273 45.0058 15.8594 44.4394Z" fill="white" fill-opacity="0.85"/>
  <path d="M11.3086 38.873L13.8477 34.4589C14.2188 33.873 14.0234 33.1894 13.4375 32.8378C12.8516 32.5058 12.1875 32.6816 11.8164 33.287L9.25781 37.7402C8.92578 38.287 9.10156 38.9706 9.70703 39.3222C10.2734 39.6542 10.9766 39.4394 11.3086 38.873Z" fill="white" fill-opacity="0.85"/>
  <path d="M10.8008 29.7324L35.0391 29.7324C41.4453 29.7324 46.2109 24.8691 46.2109 18.8535C46.2109 12.623 41.1328 8.0722 34.5117 8.0722C32.0703 3.24798 27.5391 0.142513 21.8945 0.142513C14.5508 0.142513 8.49609 5.90423 7.85156 13.1503C4.31641 14.1855 1.62109 17.2519 1.62109 21.373C1.62109 26.0019 4.98047 29.7324 10.8008 29.7324Z" fill="white" fill-opacity="0.85"/>
 </g>
</svg>
