<?xml version="1.0" encoding="UTF-8"?>
<!--Generator: Apple Native CoreSVG 326-->
<!DOCTYPE svg
PUBLIC "-//W3C//DTD SVG 1.1//EN"
       "http://www.w3.org/Graphics/SVG/1.1/DTD/svg11.dtd">
<svg version="1.1" xmlns="http://www.w3.org/2000/svg" xmlns:xlink="http://www.w3.org/1999/xlink" viewBox="0 0 46.2109 49.0309">
 <g>
  <rect height="49.0309" opacity="0" width="46.2109" x="0" y="0"/>
  <path d="M28.6133 38.9784L24.1797 38.9784L24.1406 39.8573L26.5234 35.2869C26.7578 34.8573 26.582 34.5252 26.1523 34.5252L21.9141 34.5252C21.3477 34.5252 21.1523 34.7205 20.9766 35.1307L18.3203 41.1854C18.1055 41.6737 18.3203 41.9666 18.8281 41.9666L22.4414 41.9666L22.6953 40.8143L19.5508 48.451C19.4531 48.7049 19.5117 48.9198 19.6875 48.9979C19.8633 49.076 20.0781 49.0174 20.293 48.8026L28.9258 39.9549C29.3359 39.5252 29.1797 38.9784 28.6133 38.9784Z" fill="white" fill-opacity="0.85"/>
  <path d="M10.8008 31.7323L35.0391 31.7323C41.4453 31.7323 46.2109 26.869 46.2109 20.8534C46.2109 14.6229 41.1328 10.0721 34.5117 10.0721C32.0703 5.24788 27.5391 2.14242 21.8945 2.14242C14.5508 2.14242 8.49609 7.90413 7.85156 15.1502C4.31641 16.1854 1.62109 19.2518 1.62109 23.3729C1.62109 28.0018 4.98047 31.7323 10.8008 31.7323Z" fill="white" fill-opacity="0.85"/>
 </g>
</svg>
