<?xml version="1.0" encoding="UTF-8"?>
<!--Generator: Apple Native CoreSVG 326-->
<!DOCTYPE svg
PUBLIC "-//W3C//DTD SVG 1.1//EN"
       "http://www.w3.org/Graphics/SVG/1.1/DTD/svg11.dtd">
<svg version="1.1" xmlns="http://www.w3.org/2000/svg" xmlns:xlink="http://www.w3.org/1999/xlink" viewBox="0 0 60.0977 42.207">
 <g>
  <rect height="42.207" opacity="0" width="60.0977" x="0" y="0"/>
  <path d="M51.1914 29.9023L54.2188 32.9102C54.8438 33.5352 54.8438 34.5703 54.2188 35.1758C53.5938 35.8008 52.5586 35.8398 51.9531 35.1953L48.9062 32.1875C48.2812 31.5625 48.2812 30.5273 48.9062 29.9023C49.5312 29.2969 50.5664 29.2969 51.1914 29.9023ZM49.5312 20.8594C49.5312 24.3409 47.6523 27.4197 44.8668 29.1191C44.3199 23.4368 39.7571 19.1589 33.7695 18.5547C33.1449 17.5687 32.4297 16.6694 31.6311 15.8736C33.3268 13.0671 36.4069 11.1719 39.8828 11.1719C45.1562 11.1719 49.5312 15.5664 49.5312 20.8594ZM60.0977 20.8594C60.0977 21.7578 59.375 22.4805 58.4961 22.4805L54.2578 22.4805C53.3984 22.4805 52.6367 21.7578 52.6367 20.8594C52.6367 20 53.3984 19.2383 54.2578 19.2383L58.4961 19.2383C59.375 19.2383 60.0977 20 60.0977 20.8594ZM54.2188 6.54297C54.8438 7.16797 54.8438 8.22266 54.2188 8.84766L51.2109 11.8359C50.5664 12.4805 49.5312 12.4609 48.9062 11.8359C48.2812 11.2109 48.2812 10.1758 48.9062 9.57031L51.9531 6.54297C52.5586 5.91797 53.5938 5.91797 54.2188 6.54297ZM27.8516 6.54297L30.8594 9.57031C31.4648 10.1562 31.4648 11.2305 30.8398 11.8359C30.2148 12.4609 29.1797 12.4609 28.5547 11.8359L25.5664 8.82812C24.9414 8.22266 24.9609 7.16797 25.5859 6.54297C26.2109 5.91797 27.2461 5.9375 27.8516 6.54297ZM41.5039 2.20703L41.5039 6.46484C41.5039 7.32422 40.7617 8.06641 39.8828 8.06641C39.0039 8.06641 38.2617 7.32422 38.2617 6.46484L38.2617 2.20703C38.2617 1.34766 39.0039 0.585938 39.8828 0.585938C40.7617 0.585938 41.5039 1.34766 41.5039 2.20703Z" fill="white" fill-opacity="0.85"/>
  <path d="M11.6406 39.9219L32.7734 39.9219C38.3398 39.9219 42.6562 35.7031 42.6562 30.2734C42.6562 24.8828 38.2617 20.8008 32.4219 20.7617C30.1758 16.4844 26.1328 13.8672 21.3086 13.8672C14.9414 13.8672 9.55078 18.8086 8.94531 25.2344C5.70312 26.2109 3.49609 28.9844 3.49609 32.5C3.49609 36.8359 6.75781 39.9219 11.6406 39.9219Z" fill="white" fill-opacity="0.85"/>
 </g>
</svg>
