<?xml version="1.0" encoding="UTF-8"?>
<!--Generator: Apple Native CoreSVG 326-->
<!DOCTYPE svg
PUBLIC "-//W3C//DTD SVG 1.1//EN"
       "http://www.w3.org/Graphics/SVG/1.1/DTD/svg11.dtd">
<svg version="1.1" xmlns="http://www.w3.org/2000/svg" xmlns:xlink="http://www.w3.org/1999/xlink" viewBox="0 0 60.0977 55.0195">
 <g>
  <rect height="55.0195" opacity="0" width="60.0977" x="0" y="0"/>
  <path d="M35.2539 48.1445C35.8398 48.4766 36.0352 49.1797 35.6836 49.7656L33.125 54.1797C32.8125 54.7461 32.0898 54.9414 31.5234 54.6289C30.918 54.2773 30.7422 53.5938 31.0742 53.0273L33.6328 48.5938C34.0039 47.9883 34.668 47.793 35.2539 48.1445Z" fill="white" fill-opacity="0.85"/>
  <path d="M29.1406 42.6367C29.7266 42.9883 29.9219 43.6719 29.5703 44.2773L27.0312 48.6719C26.6992 49.2578 25.9961 49.4531 25.4102 49.1211C24.8047 48.7891 24.6484 48.0859 24.9805 47.5391L27.5391 43.0859C27.8906 42.5 28.5547 42.3047 29.1406 42.6367Z" fill="white" fill-opacity="0.85"/>
  <path d="M19.7266 48.1641C20.293 48.4961 20.4883 49.1992 20.1367 49.7852L17.5977 54.1992C17.2656 54.7656 16.5625 54.9609 15.9766 54.6484C15.3906 54.2969 15.2148 53.6133 15.5469 53.0469L18.1055 48.6133C18.457 48.0078 19.1211 47.8125 19.7266 48.1641Z" fill="white" fill-opacity="0.85"/>
  <path d="M13.6133 42.6562C14.1992 43.0078 14.375 43.6914 14.0234 44.2969L11.4844 48.6914C11.1523 49.2773 10.4492 49.4727 9.86328 49.1406C9.27734 48.8086 9.10156 48.1055 9.43359 47.5586L11.9922 43.1055C12.3438 42.5195 13.0078 42.3242 13.6133 42.6562Z" fill="white" fill-opacity="0.85"/>
  <path d="M51.1914 29.3164L54.2188 32.3242C54.8438 32.9492 54.8438 33.9844 54.2188 34.5898C53.5938 35.2148 52.5586 35.2344 51.9531 34.6094L48.9062 31.6016C48.2812 30.9766 48.2812 29.9414 48.9062 29.3164C49.5312 28.7109 50.5664 28.7109 51.1914 29.3164ZM49.5312 20.2734C49.5312 23.7422 47.6523 26.8251 44.8667 28.5287C44.3194 22.8309 39.7568 18.5547 33.7695 17.9688C33.1441 16.9815 32.4277 16.081 31.6278 15.2843C33.3229 12.4751 36.4047 10.5859 39.8828 10.5859C45.1562 10.5859 49.5312 14.9609 49.5312 20.2734ZM60.0977 20.2734C60.0977 21.1719 59.375 21.8945 58.4961 21.8945L54.2578 21.8945C53.3984 21.8945 52.6367 21.1719 52.6367 20.2734C52.6367 19.3945 53.3984 18.6523 54.2578 18.6523L58.4961 18.6523C59.375 18.6523 60.0977 19.3945 60.0977 20.2734ZM54.2188 5.95703C54.8438 6.58203 54.8438 7.63672 54.2188 8.26172L51.2109 11.25C50.5664 11.8945 49.5312 11.875 48.9062 11.25C48.2812 10.625 48.2812 9.58984 48.9062 8.98438L51.9531 5.95703C52.5586 5.3125 53.5938 5.33203 54.2188 5.95703ZM27.8516 5.95703L30.8594 8.98438C31.4648 9.57031 31.4648 10.6445 30.8398 11.25C30.2148 11.875 29.1797 11.875 28.5547 11.25L25.5664 8.24219C24.9414 7.63672 24.9609 6.58203 25.5859 5.95703C26.2109 5.33203 27.2461 5.33203 27.8516 5.95703ZM41.5039 1.62109L41.5039 5.85938C41.5039 6.73828 40.7617 7.46094 39.8828 7.46094C39.0039 7.46094 38.2617 6.73828 38.2617 5.85938L38.2617 1.62109C38.2617 0.761719 39.0039 0 39.8828 0C40.7617 0 41.5039 0.761719 41.5039 1.62109Z" fill="white" fill-opacity="0.85"/>
  <path d="M11.6406 39.3359L32.7734 39.3359C38.3398 39.3359 42.6562 35.1172 42.6562 29.6875C42.6562 24.2969 38.2617 20.2148 32.4219 20.1758C30.1758 15.8984 26.1328 13.2812 21.3086 13.2812C14.9414 13.2812 9.55078 18.2227 8.94531 24.6484C5.70312 25.625 3.49609 28.3984 3.49609 31.9141C3.49609 36.25 6.75781 39.3359 11.6406 39.3359Z" fill="white" fill-opacity="0.85"/>
 </g>
</svg>
