<?xml version="1.0" encoding="UTF-8"?>
<!--Generator: Apple Native CoreSVG 326-->
<!DOCTYPE svg
PUBLIC "-//W3C//DTD SVG 1.1//EN"
       "http://www.w3.org/Graphics/SVG/1.1/DTD/svg11.dtd">
<svg version="1.1" xmlns="http://www.w3.org/2000/svg" xmlns:xlink="http://www.w3.org/1999/xlink" viewBox="0 0 42.6172 42.4023">
 <g>
  <rect height="42.4023" opacity="0" width="42.6172" x="0" y="0"/>
  <path d="M21.1328 7.59766C22.0508 7.59766 22.8125 6.83594 22.8125 5.89844L22.8125 1.69922C22.8125 0.761719 22.0508 0 21.1328 0C20.1953 0 19.4336 0.761719 19.4336 1.69922L19.4336 5.89844C19.4336 6.83594 20.1953 7.59766 21.1328 7.59766ZM30.7031 11.6016C31.3672 12.2461 32.4414 12.2656 33.1055 11.6016L36.0938 8.61328C36.7383 7.96875 36.7383 6.875 36.0938 6.21094C35.4492 5.56641 34.3555 5.56641 33.7109 6.21094L30.7031 9.21875C30.0586 9.86328 30.0586 10.957 30.7031 11.6016ZM34.668 21.1914C34.668 22.1094 35.4492 22.8711 36.3672 22.8711L40.5664 22.8711C41.4844 22.8711 42.2461 22.1094 42.2461 21.1914C42.2461 20.2734 41.4844 19.4922 40.5664 19.4922L36.3672 19.4922C35.4492 19.4922 34.668 20.2734 34.668 21.1914ZM30.7031 30.7812C30.0586 31.4453 30.0586 32.5195 30.7031 33.1641L33.7109 36.1914C34.3555 36.8359 35.4492 36.7969 36.0938 36.1719C36.7383 35.5078 36.7383 34.4336 36.0938 33.7891L33.0859 30.7812C32.4414 30.1367 31.3672 30.1562 30.7031 30.7812ZM21.1328 34.7852C20.1953 34.7852 19.4336 35.5469 19.4336 36.4648L19.4336 40.6836C19.4336 41.6016 20.1953 42.3633 21.1328 42.3633C22.0508 42.3633 22.8125 41.6016 22.8125 40.6836L22.8125 36.4648C22.8125 35.5469 22.0508 34.7852 21.1328 34.7852ZM11.543 30.7812C10.8789 30.1562 9.78516 30.1367 9.14062 30.7812L6.15234 33.7695C5.50781 34.4141 5.50781 35.4883 6.13281 36.1523C6.77734 36.7773 7.89062 36.8164 8.53516 36.1719L11.5234 33.1641C12.168 32.5195 12.168 31.4453 11.543 30.7812ZM7.57812 21.1914C7.57812 20.2734 6.79688 19.4922 5.87891 19.4922L1.67969 19.4922C0.761719 19.4922 0 20.2734 0 21.1914C0 22.1094 0.761719 22.8711 1.67969 22.8711L5.87891 22.8711C6.79688 22.8711 7.57812 22.1094 7.57812 21.1914ZM11.5234 11.6016C12.168 10.9766 12.168 9.84375 11.543 9.21875L8.55469 6.21094C7.92969 5.58594 6.81641 5.56641 6.17188 6.21094C5.52734 6.875 5.52734 7.96875 6.15234 8.59375L9.14062 11.6016C9.78516 12.2461 10.8594 12.2461 11.5234 11.6016Z" fill="white" fill-opacity="0.85"/>
  <path d="M21.1133 31.1328C26.6016 31.1328 31.0547 26.6797 31.0547 21.1914C31.0547 15.7031 26.6016 11.2305 21.1133 11.2305C15.625 11.2305 11.1719 15.7031 11.1719 21.1914C11.1719 26.6797 15.625 31.1328 21.1133 31.1328ZM21.1133 28.1641C17.2461 28.1641 14.1406 25.0586 14.1406 21.1914C14.1406 17.3242 17.2461 14.1992 21.1133 14.1992C24.9805 14.1992 28.0859 17.3242 28.0859 21.1914C28.0859 25.0586 24.9805 28.1641 21.1133 28.1641Z" fill="white" fill-opacity="0.85"/>
 </g>
</svg>
